# xmcd
#
# Track frame offsets:
#	150
#	41492
#	70728
#	94483
#	123698
#	159823
#	184240
#
# Disc length: 3538 seconds
#
# Revision: 0
# Processed by: cddbd v1.5.2PL0 Copyright (c) Steve Scherf et al.
# Submitted via: audiograbber 1.83.01
#
DISCID=5b0dd007
DTITLE=Adalverto Alvarez - Poliedro - En vivo del Poliedro
DYEAR=1900
DGENRE=Salsa
TTITLE0=Tal vez vuelvas a llamarme - Papo Lucas
TTITLE1=Controlate
TTITLE2=Me enamore de ti
TTITLE3=Mi linda Habanera
TTITLE4=Preguntame como estoy
TTITLE5=Loco enamorado
TTITLE6=Que tu quieres que te den
EXTD=
EXTT0=
EXTT1=
EXTT2=
EXTT3=
EXTT4=
EXTT5=
EXTT6=
PLAYORDER=
